<svg width="24" height="24" viewBox="0 0 24 24" fill="none" xmlns="http://www.w3.org/2000/svg">
<path d="M10.7969 17.3425H12.2031V14.2788H15.25V12.8538H12.2031V9.76625H10.7969V12.8538H7.75V14.2788H10.7969V17.3425ZM5.40625 21C5.03125 21 4.70312 20.8575 4.42187 20.5725C4.14062 20.2875 4 19.955 4 19.575V3.425C4 3.045 4.14062 2.7125 4.42187 2.4275C4.70312 2.1425 5.03125 2 5.40625 2H13.8672L19 7.20125V19.575C19 19.955 18.8594 20.2875 18.5781 20.5725C18.2969 20.8575 17.9688 21 17.5938 21H5.40625ZM13.1641 7.8425V3.425H5.40625V19.575H17.5938V7.8425H13.1641ZM5.40625 3.425V7.8425V3.425V19.575V3.425Z" fill="#9A99A6"/>
</svg>
