<svg xmlns="http://www.w3.org/2000/svg" viewBox="0 0 24 24" version="1.1" width="24" height="24" viewBox="-5.0 -10.0 110.0 135.0">
 <path d="m22.301 65.469c-1.6172-0.60156-2.4375-2.4023-1.8359-4.0195l9.375-25.113c0.45312-1.2227 1.625-2.0312 2.9258-2.0312h0.007813c1.3086 0.003906 2.4766 0.82031 2.9219 2.0508l6.7578 18.438 0.003906 0.011719 2.4453 6.668c0.59375 1.6172-0.23828 3.4141-1.8594 4.0078-0.35547 0.13281-0.71875 0.19141-1.0742 0.19141-1.2734 0-2.4688-0.78516-2.9336-2.0508l-1.6445-4.4805h-9.3984l-1.6797 4.5c-0.60156 1.6172-2.4062 2.4375-4.0195 1.8359zm32.344-2.9258v-9.293h6.2656c5.2266 0 9.4727-4.25 9.4727-9.4727s-4.25-9.4727-9.4727-9.4727h-9.3906c-1.7266 0-3.125 1.3984-3.125 3.125v25.113c0 1.7266 1.3984 3.125 3.125 3.125 1.7266 0 3.125-1.3984 3.125-3.125zm25.086 0v-25.113c0-1.7266-1.3984-3.125-3.125-3.125-1.7266 0-3.125 1.3984-3.125 3.125v25.113c0 1.7266 1.3984 3.125 3.125 3.125 1.7266 0 3.125-1.3984 3.125-3.125zm-1.332-43.781h-21.164l-4.9531-5.2891c-0.58984-0.63281-1.4141-0.98828-2.2812-0.98828h-0.007812c-0.87109 0.003906-1.6953 0.36719-2.2852 1.0039l-4.875 5.2734h-21.227c-5.168 0-9.375 4.207-9.375 9.375v3.125c0 1.7266 1.3984 3.125 3.125 3.125 1.7266 0 3.125-1.3984 3.125-3.125v-3.125c0-1.7227 1.4023-3.125 3.125-3.125h22.594c0.87109 0 1.7031-0.36328 2.2969-1.0039l3.5234-3.8125 3.582 3.8281c0.58984 0.63281 1.4141 0.98828 2.2812 0.98828h22.52c1.7227 0 3.125 1.4023 3.125 3.125v3.125c0 1.7266 1.3984 3.125 3.125 3.125 1.7266 0 3.125-1.3984 3.125-3.125v-3.125c0-5.168-4.207-9.375-9.375-9.375zm6.25 49.977c-1.7266 0-3.125 1.3984-3.125 3.125 0 1.7227-1.4023 3.125-3.125 3.125h-22.52c-0.86328 0-1.6914 0.35547-2.2812 0.98828l-3.582 3.8281-3.5234-3.8125c-0.59375-0.64063-1.4219-1.0039-2.2969-1.0039h-22.594c-1.7227 0-3.125-1.4023-3.125-3.125v-3.125c0-1.7266-1.3984-3.125-3.125-3.125-1.7266 0-3.125 1.3984-3.125 3.125v3.125c0 5.168 4.207 9.375 9.375 9.375h21.227l4.875 5.2734c0.58984 0.63672 1.4141 1 2.2852 1.0039h0.007813c0.86328 0 1.6914-0.35547 2.2812-0.98828l4.9531-5.2891h21.164c5.168 0 9.375-4.207 9.375-9.375 0-1.7266-1.3984-3.125-3.125-3.125z"/>
</svg>