<svg width="24" height="24" viewBox="0 0 24 24" fill="none" xmlns="http://www.w3.org/2000/svg">
<path d="M12.791 9.58914C12.791 9.09114 13.071 8.74714 13.723 8.61914V10.5081C13.072 10.3291 12.791 10.0741 12.791 9.58914ZM15.739 13.3411C15.739 13.8261 15.459 14.2211 14.859 14.3871V12.3711C15.586 12.5881 15.739 12.9711 15.739 13.3411Z" fill="#080808"/>
<path fill-rule="evenodd" clip-rule="evenodd" d="M8.5 3H20V16C20 17.0609 19.5786 18.0783 18.8284 18.8284C18.0783 19.5786 17.0609 20 16 20H7.5C6.57174 20 5.6815 19.6313 5.02513 18.9749C4.36875 18.3185 4 17.4283 4 16.5V9H8.5V3ZM8.5 11.5H6.5V16.5C6.5 16.7652 6.60536 17.0196 6.79289 17.2071C6.98043 17.3946 7.23478 17.5 7.5 17.5C7.76522 17.5 8.01957 17.3946 8.20711 17.2071C8.39464 17.0196 8.5 16.7652 8.5 16.5V11.5ZM15.012 17.017V15.792C16.709 15.512 17.5 14.452 17.5 13.202C17.5 11.9 16.645 11.172 14.858 10.764V8.646C15.471 8.786 15.879 9.067 16.186 9.412L17.346 8.365C16.786 7.727 16.032 7.331 15.012 7.217V6.017H13.557V7.217C11.91 7.408 11.03 8.3 11.03 9.64C11.03 10.878 11.809 11.72 13.723 12.116V14.413C13.008 14.311 12.408 13.966 11.923 13.456L10.775 14.502C11.413 15.204 12.268 15.727 13.557 15.842V17.016L15.012 17.017Z" fill="#080808"/>
</svg>
