<svg width="24" height="24" viewBox="0 0 24 24" fill="none" xmlns="http://www.w3.org/2000/svg">
<path d="M14.25 7.76467L12.733 9.28067L14.25 10.7967L15.767 9.28067L14.25 7.76367V7.76467Z" fill="#29292E"/>
<path fill-rule="evenodd" clip-rule="evenodd" d="M20 3H8.5V9H4V16.5C4 17.4283 4.36875 18.3185 5.02513 18.9749C5.6815 19.6313 6.57174 20 7.5 20H16C17.0609 20 18.0783 19.5786 18.8284 18.8284C19.5786 18.0783 20 17.0609 20 16V3ZM6.5 11.5H8.5V16.5C8.5 16.7652 8.39464 17.0196 8.20711 17.2071C8.01957 17.3946 7.76522 17.5 7.5 17.5C7.23478 17.5 6.98043 17.3946 6.79289 17.2071C6.60536 17.0196 6.5 16.7652 6.5 16.5V11.5ZM14.25 12.53C15.112 12.53 15.9386 12.1876 16.5481 11.5781C17.1576 10.9686 17.5 10.142 17.5 9.28C17.5 8.41805 17.1576 7.5914 16.5481 6.9819C15.9386 6.37241 15.112 6.03 14.25 6.03C13.388 6.03 12.5614 6.37241 11.9519 6.9819C11.3424 7.5914 11 8.41805 11 9.28C11 10.142 11.3424 10.9686 11.9519 11.5781C12.5614 12.1876 13.388 12.53 14.25 12.53ZM17.5 14.53V17.03H11V14.53H17.5Z" fill="#29292E"/>
</svg>
