<svg width="24" height="24" viewBox="0 0 24 24" fill="none" xmlns="http://www.w3.org/2000/svg">
<path fill-rule="evenodd" clip-rule="evenodd" d="M15 3.5C13.797 3.5 12.6271 3.89429 11.6695 4.6225C10.7119 5.35072 10.0194 6.37271 9.698 7.532C11.4384 7.69495 13.0673 8.46056 14.3034 9.69662C15.5394 10.9327 16.305 12.5616 16.468 14.302C17.7485 13.9451 18.8565 13.1367 19.5872 12.0262C20.3178 10.9157 20.6218 9.57827 20.4428 8.26108C20.2637 6.94388 19.6139 5.73603 18.6134 4.86081C17.6129 3.9856 16.3293 3.50221 15 3.5ZM14.5 15C14.5 13.5413 13.9205 12.1424 12.8891 11.1109C11.8576 10.0795 10.4587 9.5 9 9.5C7.54131 9.5 6.14236 10.0795 5.11091 11.1109C4.07946 12.1424 3.5 13.5413 3.5 15C3.5 16.4587 4.07946 17.8576 5.11091 18.8891C6.14236 19.9205 7.54131 20.5 9 20.5C10.4587 20.5 11.8576 19.9205 12.8891 18.8891C13.9205 17.8576 14.5 16.4587 14.5 15ZM6.5 15L9 17.5L11.5 15L9 12.5L6.5 15ZM9 4H4V9L9 4ZM20 20H15L20 15V20Z" fill="#9A99A6"/>
</svg>
