<svg xmlns="http://www.w3.org/2000/svg" viewBox="0 0 24 24" width="24" height="24"  version="1.1" viewBox="-5.0 -10.0 110.0 135.0">
 <g>
  <path d="m27.965 30.02 1.3047 0.41406c-0.19922 0.73047-0.53125 1.2695-1 1.625-0.46484 0.35156-1.0547 0.53125-1.7734 0.53125-0.88672 0-1.6133-0.30469-2.1836-0.90625-0.57031-0.60547-0.85547-1.4336-0.85547-2.4844 0-1.1094 0.28906-1.9727 0.85938-2.5898 0.57422-0.61328 1.3281-0.92188 2.2617-0.92188 0.81641 0 1.4805 0.24219 1.9883 0.72266 0.30469 0.28516 0.53125 0.69531 0.68359 1.2305l-1.3359 0.32031c-0.078124-0.34766-0.24219-0.62109-0.49219-0.82031s-0.55469-0.30078-0.91016-0.30078c-0.49219 0-0.89844 0.17578-1.2031 0.53125-0.30859 0.35547-0.46094 0.92969-0.46094 1.7266 0 0.84375 0.15234 1.4453 0.45703 1.8008 0.30469 0.35937 0.69922 0.53906 1.1836 0.53906 0.35938 0 0.66797-0.11328 0.92578-0.34375 0.25781-0.22656 0.44141-0.58594 0.55469-1.0742zm2.457-4.2188h2.4609c0.55469 0 0.97656 0.042969 1.2695 0.12891 0.39062 0.11328 0.72656 0.32031 1.0039 0.61719 0.28125 0.29297 0.49219 0.65234 0.63672 1.0781s0.21875 0.95312 0.21875 1.5781c0 0.54688-0.066407 1.0234-0.20703 1.4219-0.16797 0.48438-0.40234 0.87891-0.71484 1.1797-0.23438 0.22656-0.54688 0.40625-0.94531 0.53125-0.29688 0.09375-0.69531 0.14062-1.1914 0.14062h-2.5352v-6.6719zm1.3477 1.1289v4.418h1.0039c0.375 0 0.64844-0.019531 0.81641-0.0625 0.21875-0.054687 0.39844-0.14453 0.54297-0.27734 0.14453-0.12891 0.26172-0.34766 0.35156-0.64453s0.13672-0.70703 0.13672-1.2227-0.046875-0.91016-0.13672-1.1875-0.21875-0.49219-0.38281-0.64453c-0.16406-0.15625-0.37109-0.25781-0.625-0.3125-0.1875-0.042969-0.55469-0.0625-1.1055-0.0625h-0.60547zm5.3945 5.543v-6.6719h2.8359c0.71484 0 1.2305 0.0625 1.5547 0.17969 0.32422 0.12109 0.58203 0.33203 0.77734 0.63672 0.19531 0.30859 0.28906 0.65625 0.28906 1.0508 0 0.5-0.14844 0.91406-0.44141 1.2422-0.29297 0.32422-0.73438 0.53125-1.3203 0.61719 0.29297 0.17188 0.53125 0.35547 0.72266 0.5625 0.19141 0.20312 0.44531 0.5625 0.76562 1.082l0.81641 1.3008h-1.6133l-0.97266-1.4531c-0.34766-0.51953-0.58203-0.84375-0.71094-0.98047-0.12891-0.13672-0.26172-0.22656-0.40625-0.27734-0.14453-0.050781-0.36719-0.074219-0.67969-0.074219h-0.27344v2.7852h-1.3477zm1.3477-3.8516h0.99609c0.64453 0 1.0508-0.027344 1.2109-0.082032 0.16016-0.054687 0.28516-0.14844 0.37891-0.28125 0.089844-0.13281 0.13672-0.30078 0.13672-0.5 0-0.22656-0.0625-0.40625-0.17969-0.54297-0.12109-0.13672-0.28906-0.22656-0.50781-0.26172-0.10938-0.015625-0.4375-0.023437-0.98438-0.023437h-1.0508z"/>
  <path d="m53.164 55.402 1.3281 0.33594c-0.27734 1.0859-0.78125 1.918-1.5 2.4922-0.72266 0.57031-1.6055 0.85547-2.6523 0.85547-1.082 0-1.957-0.21875-2.6367-0.66016-0.67578-0.44141-1.1914-1.0781-1.5469-1.9102-0.35156-0.83594-0.53125-1.7305-0.53125-2.6875 0-1.043 0.19922-1.9531 0.59766-2.7305 0.39844-0.77734 0.96484-1.3672 1.7031-1.7734 0.73438-0.40234 1.5469-0.60547 2.4297-0.60547 1.0039 0 1.8477 0.25391 2.5312 0.76562 0.68359 0.51172 1.1602 1.2266 1.4297 2.1562l-1.3047 0.30859c-0.23438-0.73047-0.57031-1.2617-1.0117-1.5938s-0.99609-0.5-1.668-0.5c-0.76953 0-1.4141 0.18359-1.9297 0.55469-0.51953 0.37109-0.88281 0.86719-1.0898 1.4883-0.21094 0.62109-0.31641 1.2617-0.31641 1.9219 0 0.85547 0.125 1.5977 0.37109 2.2344 0.25 0.63672 0.63672 1.1094 1.1602 1.4258 0.52344 0.31641 1.0938 0.47266 1.7031 0.47266 0.74219 0 1.3711-0.21484 1.8867-0.64062 0.51562-0.42969 0.86328-1.0664 1.0469-1.9102zm2.9609 3.5156v-10.023h3.4531c0.78125 0 1.375 0.050781 1.7852 0.14453 0.57422 0.12891 1.0625 0.37109 1.4688 0.71484 0.52734 0.44922 0.92578 1.0195 1.1875 1.7148 0.26562 0.69531 0.39453 1.4883 0.39453 2.3828 0 0.76172-0.089843 1.4336-0.26953 2.0234-0.17578 0.58984-0.40234 1.0742-0.68359 1.4609-0.27734 0.38672-0.58203 0.6875-0.91406 0.90625-0.32812 0.22266-0.72656 0.39062-1.1953 0.50391-0.46875 0.11328-1.0078 0.17188-1.6094 0.17188zm1.3242-1.1836h2.1406c0.66016 0 1.1797-0.0625 1.5586-0.18359 0.375-0.125 0.67578-0.29688 0.89844-0.51953 0.31641-0.3125 0.55859-0.73828 0.73438-1.2656 0.17578-0.53125 0.26562-1.1758 0.26562-1.9336 0-1.0469-0.17188-1.8516-0.51562-2.4141-0.34375-0.56641-0.76172-0.94141-1.2539-1.1328-0.35547-0.13672-0.92969-0.20703-1.7148-0.20703h-2.1094v7.6602zm8.8086 1.1836v-10.023h4.4453c0.89453 0 1.5742 0.089844 2.0391 0.26953 0.46484 0.17969 0.83594 0.49609 1.1172 0.95313 0.27734 0.45703 0.41406 0.96094 0.41406 1.5117 0 0.71094-0.23047 1.3086-0.69141 1.7969-0.46094 0.48828-1.1719 0.79688-2.1328 0.92969 0.35156 0.16797 0.61719 0.33203 0.80078 0.5 0.38672 0.35547 0.75391 0.80078 1.1016 1.332l1.7422 2.7305h-1.668l-1.3242-2.0859c-0.38672-0.60156-0.70703-1.0625-0.96094-1.3789-0.25-0.32031-0.47266-0.54297-0.67188-0.66797-0.19922-0.12891-0.39844-0.21875-0.60547-0.26953-0.15234-0.03125-0.39844-0.046875-0.73828-0.046875h-1.5391v4.4531h-1.3242zm1.3242-5.6016h2.8516c0.60547 0 1.082-0.0625 1.4219-0.1875 0.34375-0.125 0.60156-0.32812 0.78125-0.60156 0.17578-0.27734 0.26562-0.57422 0.26562-0.89844 0-0.47266-0.17188-0.86328-0.51562-1.168-0.34375-0.30469-0.88672-0.45703-1.6328-0.45703h-3.1719v3.3164z"/>
  <path d="m41.902 68.758c-0.42969 0-0.78125 0.35156-0.78125 0.78125 0 0.42969 0.35156 0.78125 0.78125 0.78125h36.223c0.42969 0 0.78125-0.35156 0.78125-0.78125 0-0.42969-0.35156-0.78125-0.78125-0.78125z"/>
  <path d="m41.902 74.254c-0.42969 0-0.78125 0.35156-0.78125 0.78125 0 0.42969 0.35156 0.78125 0.78125 0.78125h36.223c0.42969 0 0.78125-0.35156 0.78125-0.78125 0-0.42969-0.35156-0.78125-0.78125-0.78125z"/>
  <path d="m41.902 79.75c-0.42969 0-0.78125 0.35156-0.78125 0.78125s0.35156 0.78125 0.78125 0.78125h36.223c0.42969 0 0.78125-0.35156 0.78125-0.78125s-0.35156-0.78125-0.78125-0.78125z"/>
  <path d="m33.309 12.5h43.848c0.26562 0 0.50391 0.13281 0.64453 0.33984l9.5117 11.176c0.13281 0.15625 0.17578 0.30859 0.1875 0.51172v62.195c0 0.42969-0.35156 0.78125-0.78125 0.78125h-53.41c-0.42969 0-0.78125-0.35156-0.78125-0.78125v-50.793h1.5625v50.012h51.848v-61.137l-9.1367-10.738h-42.711v8.3984h-1.5625v-9.1797c0-0.42969 0.35156-0.78125 0.78125-0.78125z"/>
  <path d="m86.523 25.301c0.42969 0 0.78125-0.35156 0.78125-0.78125 0-0.42969-0.35156-0.78125-0.78125-0.78125h-8.5859v-10.262c0-0.42969-0.35156-0.78125-0.78125-0.78125s-0.78125 0.35156-0.78125 0.78125v11.043c0 0.42969 0.35156 0.78125 0.78125 0.78125z"/>
  <path d="m19.957 21.68h31.816c1.293 0 2.3477 1.0547 2.3477 2.3477v10.223c0 1.293-1.0547 2.3477-2.3477 2.3477h-31.816c-2.0508 0-3.918-0.83984-5.2656-2.1914-2.918-2.918-2.918-7.6133 0-10.535 1.3516-1.3516 3.2148-2.1914 5.2656-2.1914zm31.816 1.5625h-31.816c-1.6211 0-3.0938 0.66406-4.1641 1.7305-2.3086 2.3086-2.3086 6.0156 0 8.3242 1.0703 1.0703 2.543 1.7305 4.1641 1.7305h31.816c0.42969 0 0.78516-0.35547 0.78516-0.78516v-10.223c0-0.42969-0.35547-0.78516-0.78516-0.78516z"/>
 </g>
</svg>