<svg width="24" height="24" viewBox="0 0 24 24" fill="none" xmlns="http://www.w3.org/2000/svg">
<path d="M12.0251 21C11.7418 21 11.5041 20.904 11.3121 20.712C11.1208 20.5207 11.0251 20.2833 11.0251 20V18.85C10.2751 18.6833 9.61677 18.3917 9.0501 17.975C8.48344 17.5583 8.0251 16.975 7.6751 16.225C7.55844 15.9917 7.5541 15.746 7.6621 15.488C7.77077 15.2293 7.96677 15.0417 8.2501 14.925C8.48344 14.825 8.7251 14.8293 8.9751 14.938C9.2251 15.046 9.41677 15.225 9.5501 15.475C9.83344 15.975 10.1918 16.3543 10.6251 16.613C11.0584 16.871 11.5918 17 12.2251 17C12.9084 17 13.4878 16.846 13.9631 16.538C14.4378 16.2293 14.6751 15.75 14.6751 15.1C14.6751 14.5167 14.4918 14.054 14.1251 13.712C13.7584 13.3707 12.9084 12.9833 11.5751 12.55C10.1418 12.1 9.15844 11.5627 8.6251 10.938C8.09177 10.3127 7.8251 9.55 7.8251 8.65C7.8251 7.56667 8.1751 6.725 8.8751 6.125C9.5751 5.525 10.2918 5.18333 11.0251 5.1V4C11.0251 3.71667 11.1208 3.479 11.3121 3.287C11.5041 3.09567 11.7418 3 12.0251 3C12.3084 3 12.5461 3.09567 12.7381 3.287C12.9294 3.479 13.0251 3.71667 13.0251 4V5.1C13.6584 5.2 14.2084 5.40433 14.6751 5.713C15.1418 6.021 15.5251 6.4 15.8251 6.85C15.9751 7.06667 16.0044 7.30833 15.9131 7.575C15.8211 7.84167 15.6334 8.03333 15.3501 8.15C15.1168 8.25 14.8751 8.254 14.6251 8.162C14.3751 8.07067 14.1418 7.90833 13.9251 7.675C13.7084 7.44167 13.4544 7.26233 13.1631 7.137C12.8711 7.01233 12.5084 6.95 12.0751 6.95C11.3418 6.95 10.7834 7.11267 10.4001 7.438C10.0168 7.76267 9.8251 8.16667 9.8251 8.65C9.8251 9.2 10.0751 9.63333 10.5751 9.95C11.0751 10.2667 11.9418 10.6 13.1751 10.95C14.3251 11.2833 15.1961 11.8123 15.7881 12.537C16.3794 13.2623 16.6751 14.1 16.6751 15.05C16.6751 16.2333 16.3251 17.1333 15.6251 17.75C14.9251 18.3667 14.0584 18.75 13.0251 18.9V20C13.0251 20.2833 12.9294 20.5207 12.7381 20.712C12.5461 20.904 12.3084 21 12.0251 21Z" fill="#9A99A6"/>
</svg>
