<svg xmlns="http://www.w3.org/2000/svg" width="24" height="24"  version="1.1" viewBox="-5.0 -10.0 110.0 135.0">
 <path d="m80.18 40.648v-20.824h-20.832c-1.8242-6.6172-7.8984-11.492-15.09-11.492-7.1914 0-13.266 4.875-15.09 11.492h-20.836v28.598h4.168c4.0391 0 7.3203 3.2852 7.3203 7.3242 0 4.043-3.2891 7.3203-7.3203 7.3203h-4.168v28.602h28.602v-4.168c0-4.043 3.2891-7.3242 7.3203-7.3242 4.0352 0 7.3203 3.2852 7.3203 7.3242v4.168h28.602v-20.828c6.6172-1.8281 11.488-7.8984 11.488-15.09s-4.8711-13.266-11.488-15.098zm-4.168 22.418h-4.168v20.266h-12.5c-1.8242-6.6172-7.8984-11.492-15.09-11.492s-13.266 4.875-15.09 11.492h-12.496v-12.496c6.6172-1.8281 11.488-7.8984 11.488-15.09s-4.8711-13.266-11.488-15.098v-12.492h20.266v-4.168c0-4.043 3.2891-7.3242 7.3203-7.3242 4.0352 0 7.3203 3.2852 7.3203 7.3242v4.168h20.266v20.262h4.168c4.0391 0 7.3203 3.2852 7.3203 7.3242 0 4.043-3.2852 7.3203-7.3203 7.3203z"/>
</svg>