<svg width="24" height="24" viewBox="0 0 24 24" fill="none" xmlns="http://www.w3.org/2000/svg">
<path d="M11.5 9.2C12.2595 9.2 12.9879 9.495 13.5249 10.0201C14.0619 10.5452 14.3636 11.2574 14.3636 12C14.3636 12.7426 14.0619 13.4548 13.5249 13.9799C12.9879 14.505 12.2595 14.8 11.5 14.8C10.7405 14.8 10.0121 14.505 9.4751 13.9799C8.93807 13.4548 8.63636 12.7426 8.63636 12C8.63636 11.2574 8.93807 10.5452 9.4751 10.0201C10.0121 9.495 10.7405 9.2 11.5 9.2ZM11.5 5C16.2727 5 20.3486 7.90267 22 12C20.3486 16.0973 16.2727 19 11.5 19C6.72727 19 2.65136 16.0973 1 12C2.65136 7.90267 6.72727 5 11.5 5ZM3.08091 12C4.65591 15.136 7.91091 17.1333 11.5 17.1333C15.0891 17.1333 18.3441 15.136 19.9191 12C18.3441 8.864 15.0891 6.86667 11.5 6.86667C7.91091 6.86667 4.65591 8.864 3.08091 12Z" fill="#A2BFBE" fill-opacity="0.8"/>
<path d="M11.5 9.2C12.2595 9.2 12.9879 9.495 13.5249 10.0201C14.0619 10.5452 14.3636 11.2574 14.3636 12C14.3636 12.7426 14.0619 13.4548 13.5249 13.9799C12.9879 14.505 12.2595 14.8 11.5 14.8C10.7405 14.8 10.0121 14.505 9.4751 13.9799C8.93807 13.4548 8.63636 12.7426 8.63636 12C8.63636 11.2574 8.93807 10.5452 9.4751 10.0201C10.0121 9.495 10.7405 9.2 11.5 9.2ZM11.5 5C16.2727 5 20.3486 7.90267 22 12C20.3486 16.0973 16.2727 19 11.5 19C6.72727 19 2.65136 16.0973 1 12C2.65136 7.90267 6.72727 5 11.5 5ZM3.08091 12C4.65591 15.136 7.91091 17.1333 11.5 17.1333C15.0891 17.1333 18.3441 15.136 19.9191 12C18.3441 8.864 15.0891 6.86667 11.5 6.86667C7.91091 6.86667 4.65591 8.864 3.08091 12Z" fill="black" fill-opacity="0.2"/>
</svg>
