<svg width="24" height="24" viewBox="0 0 24 24" fill="none" xmlns="http://www.w3.org/2000/svg" style="padding: 3px;">
<path d="M2 3H19C19.5304 3 20.0391 3.21071 20.4142 3.58579C20.7893 3.96086 21 4.46957 21 5V9H19V5H2V19H19V15H21V19C21 19.5304 20.7893 20.0391 20.4142 20.4142C20.0391 20.7893 19.5304 21 19 21H2C1.46957 21 0.960859 20.7893 0.585786 20.4142C0.210714 20.0391 0 19.5304 0 19V5C0 4.46957 0.210714 3.96086 0.585786 3.58579C0.960859 3.21071 1.46957 3 2 3ZM17 15V13H24V11H17V9L13 12L17 15ZM4 13H11V11H4V13ZM4 9H11V7H4V9ZM4 17H8V15H4V17Z" 
fill="#0097A7" fill-opacity="0.41"/>
</svg>
