<svg width="39" height="41" viewBox="0 0 39 41" fill="none" xmlns="http://www.w3.org/2000/svg">
<path d="M38.0234 25.5852C36.8921 29.7482 34.4739 33.4391 31.1365 36.0968C27.799 38.7544 23.7249 40.2334 19.5337 40.3087C15.3425 40.3841 11.2635 39.0517 7.91704 36.5142C4.57056 33.9768 2.13965 30.373 0.993996 26.251C-0.151662 22.129 0.0506087 17.7142 1.57005 13.6781C3.08949 9.64191 5.84296 6.20518 9.41176 3.89048C12.9806 1.57579 17.1694 0.509777 21.3414 0.854551C25.5133 1.19933 29.4401 2.93602 32.5245 5.80055L30.2284 8.40088C27.6877 6.04132 24.4532 4.61077 21.0167 4.32677C17.5802 4.04278 14.1297 4.92087 11.19 6.82752C8.25036 8.73418 5.98227 11.5651 4.73068 14.8897C3.4791 18.2144 3.31248 21.8509 4.25618 25.2463C5.19988 28.6416 7.20225 31.6101 9.95881 33.7003C12.7154 35.7904 16.0753 36.8879 19.5277 36.8258C22.98 36.7638 26.3359 35.5455 29.085 33.3564C31.8342 31.1672 33.8261 28.1269 34.7579 24.6979L38.0234 25.5852Z" fill="#3700B3"/>
</svg>
