<svg width="68" height="24" viewBox="0 0 68 24" fill="none" xmlns="http://www.w3.org/2000/svg">
<path fill-rule="evenodd" clip-rule="evenodd" d="M22.6828 10.1527C22.9943 10.1527 23.2468 10.4052 23.2468 10.7168C23.2468 11.0284 22.9943 11.2808 22.6828 11.2808L18.1704 11.2806L23.4911 19.1774H26.9724L23.5884 14.101C25.2688 14.101 26.6311 12.7388 26.6311 11.0584V9.81116C26.6311 8.13077 25.2688 6.76849 23.5884 6.76849H15.1151L17.3995 10.1527H22.6828Z" fill="#212121"/>
<path fill-rule="evenodd" clip-rule="evenodd" d="M30.6617 11.8449C30.6617 11.3778 30.8512 10.9559 31.1581 10.6491C31.4649 10.3423 31.8868 10.1527 32.3538 10.1527C33.2879 10.1527 34.046 10.9108 34.046 11.8449V14.101C34.046 15.0351 33.2879 15.7932 32.3538 15.7932C31.4198 15.7932 30.6617 15.0351 30.6617 14.101V11.8449ZM32.3538 19.1774C35.1583 19.1774 37.4302 16.9055 37.4302 14.101V11.8449C37.4302 10.4415 36.8617 9.17357 35.9436 8.25531C35.0252 7.33705 33.7572 6.76849 32.3538 6.76849C29.5494 6.76849 27.2775 9.04046 27.2775 11.8449V14.101C27.2775 16.9055 29.5494 19.1774 32.3538 19.1774Z" fill="#212121"/>
<path fill-rule="evenodd" clip-rule="evenodd" d="M36.4668 19.1774H40.6497L43.0708 15.8496L45.4915 19.1774H49.6744L45.1621 12.973L49.6744 6.76849H45.4892L43.0708 10.0963L40.652 6.76849H36.4668L40.9791 12.973L36.4668 19.1774Z" fill="#212121"/>
<path fill-rule="evenodd" clip-rule="evenodd" d="M54.1867 19.1774L56.6076 15.8496L59.0285 19.1774H63.2114L58.6991 12.973L63.2114 6.76849H59.0262L56.6076 10.0963L54.189 6.76849H50.0038L54.5161 12.973L50.0038 19.1774H54.1867Z" fill="#212121"/>
<path fill-rule="evenodd" clip-rule="evenodd" d="M10.3553 11.2808L9.79102 14.665H19.3111L17.0268 11.2808H10.3553Z" fill="#212121"/>
<path fill-rule="evenodd" clip-rule="evenodd" d="M9.2353 17.9951C9.13197 18.614 9.60937 19.1774 10.2366 19.1774H22.3572L20.101 15.7931H9.60238L9.2353 17.9951Z" fill="#212121"/>
<mask id="mask0_135_607" style="mask-type:alpha" maskUnits="userSpaceOnUse" x="0" y="0" width="67" height="24">
<path d="M0.0187988 0H66.6893V23.6898H0.0187988V0Z" fill="white"/>
</mask>
<g mask="url(#mask0_135_607)">
<path fill-rule="evenodd" clip-rule="evenodd" d="M64.2278 20.3055H10.1192C8.86434 20.3055 7.90998 19.1785 8.11642 17.9408L9.41574 10.1527H16.2655L13.98 6.76848H9.97979L11.1079 -3.05176e-05H6.53236L5.40428 6.76848H0.582841L0.0368482 10.0489L0.0187988 10.1527H4.84023L3.3735 18.9617C2.96152 21.437 4.87024 23.6897 7.37955 23.6897H9.83539H12.7014H66.6893L64.2278 20.3055Z" fill="#212121"/>
</g>
</svg>
