<svg xmlns="http://www.w3.org/2000/svg" width="24" height="24"  xmlns:xlink="http://www.w3.org/1999/xlink" version="1.1" x="0px" y="0px" viewBox="0 0 100 125" style="enable-background:new 0 0 100 100;" xml:space="preserve"><g><path d="M31.82,22.75c-0.22-1.75-1.74-3.17-3.38-3.17h-2.72c1.73-0.96,2.9-2.8,2.9-4.91c0-3.1-2.52-5.62-5.62-5.62   s-5.62,2.52-5.62,5.62c0,2.11,1.17,3.95,2.9,4.91h-2.72c-1.64,0-3.16,1.42-3.38,3.17c-0.4,3.13-1.04,7.78-1.32,9.74   c-0.05,0.39,0.06,0.78,0.31,1.08c0.24,0.27,0.57,0.43,0.92,0.43H31.9c0.35,0,0.69-0.16,0.92-0.43c0.25-0.29,0.37-0.68,0.31-1.07   C32.86,30.52,32.21,25.87,31.82,22.75z M18.38,14.67c0-2.54,2.07-4.62,4.62-4.62s4.62,2.07,4.62,4.62s-2.07,4.62-4.62,4.62   S18.38,17.21,18.38,14.67z M32.07,32.91c-0.03,0.04-0.09,0.08-0.17,0.08H14.1c-0.08,0-0.13-0.04-0.17-0.08   c-0.06-0.07-0.09-0.18-0.08-0.28c0.28-1.97,0.92-6.62,1.32-9.76c0.16-1.24,1.25-2.29,2.39-2.29h10.88c1.14,0,2.23,1.05,2.39,2.29   c0.4,3.13,1.05,7.79,1.32,9.76C32.16,32.73,32.13,32.83,32.07,32.91z"/><path d="M77,32.94c-4.89,0-9.3,2.08-12.42,5.39L39.66,26.68c0.26-1.19,0.41-2.41,0.41-3.68c0-9.41-7.66-17.06-17.07-17.06   S5.93,13.59,5.93,23S13.59,40.06,23,40.06c7.79,0,14.37-5.26,16.4-12.4L63.88,39.1c-2.46,2.96-3.94,6.76-3.94,10.9   c0,4.14,1.49,7.94,3.95,10.9L39.47,72.59C37.52,65.32,30.88,59.94,23,59.94c-9.41,0-17.07,7.66-17.07,17.06S13.59,94.06,23,94.06   S40.07,86.41,40.07,77c0-1.17-0.12-2.32-0.35-3.42l24.87-11.91c3.11,3.31,7.52,5.39,12.41,5.39c9.41,0,17.07-7.66,17.07-17.06   S86.41,32.94,77,32.94z M23,39.06c-8.86,0-16.07-7.21-16.07-16.06S14.14,6.94,23,6.94S39.07,14.14,39.07,23S31.86,39.06,23,39.06z    M23,93.06c-8.86,0-16.07-7.21-16.07-16.06S14.14,60.94,23,60.94S39.07,68.14,39.07,77S31.86,93.06,23,93.06z M77,66.06   c-8.86,0-16.07-7.21-16.07-16.06S68.14,33.94,77,33.94S93.07,41.14,93.07,50S85.86,66.06,77,66.06z"/><path d="M85.82,49.75c-0.22-1.75-1.74-3.17-3.38-3.17h-2.72c1.73-0.96,2.9-2.8,2.9-4.91c0-3.1-2.52-5.62-5.62-5.62   s-5.62,2.52-5.62,5.62c0,2.11,1.17,3.95,2.9,4.91h-2.72c-1.64,0-3.16,1.42-3.38,3.17c-0.4,3.13-1.04,7.78-1.32,9.74   c-0.05,0.39,0.06,0.78,0.31,1.08c0.24,0.27,0.57,0.43,0.92,0.43H85.9c0.35,0,0.69-0.16,0.92-0.43c0.25-0.29,0.37-0.68,0.31-1.08   C86.86,57.52,86.21,52.87,85.82,49.75z M72.38,41.67c0-2.54,2.07-4.62,4.62-4.62s4.62,2.07,4.62,4.62s-2.07,4.62-4.62,4.62   S72.38,44.21,72.38,41.67z M86.07,59.91c-0.03,0.04-0.09,0.08-0.17,0.08H68.1c-0.08,0-0.13-0.04-0.17-0.08   c-0.06-0.07-0.09-0.18-0.08-0.28c0.28-1.97,0.92-6.62,1.32-9.76c0.16-1.24,1.25-2.29,2.39-2.29h10.88c1.14,0,2.23,1.05,2.39,2.29   c0.4,3.13,1.05,7.79,1.32,9.76C86.16,59.73,86.13,59.83,86.07,59.91z"/><path d="M31.82,76.75c-0.22-1.75-1.74-3.17-3.38-3.17h-2.72c1.73-0.96,2.9-2.8,2.9-4.91c0-3.1-2.52-5.62-5.62-5.62   s-5.62,2.52-5.62,5.62c0,2.11,1.17,3.95,2.9,4.91h-2.72c-1.64,0-3.16,1.42-3.38,3.17c-0.4,3.13-1.04,7.78-1.32,9.74   c-0.05,0.39,0.06,0.78,0.31,1.08c0.24,0.27,0.57,0.43,0.92,0.43H31.9c0.35,0,0.69-0.16,0.92-0.43c0.25-0.29,0.37-0.68,0.31-1.07   C32.86,84.52,32.21,79.87,31.82,76.75z M18.38,68.67c0-2.54,2.07-4.62,4.62-4.62s4.62,2.07,4.62,4.62s-2.07,4.62-4.62,4.62   S18.38,71.21,18.38,68.67z M32.07,86.91c-0.03,0.04-0.09,0.08-0.17,0.08H14.1c-0.08,0-0.13-0.04-0.17-0.08   c-0.06-0.07-0.09-0.18-0.08-0.28c0.28-1.97,0.92-6.62,1.32-9.76c0.16-1.24,1.25-2.29,2.39-2.29h10.88c1.14,0,2.23,1.05,2.39,2.29   c0.4,3.13,1.05,7.79,1.32,9.76C32.16,86.73,32.13,86.83,32.07,86.91z"/></g></svg>