<svg width="24" height="24"  xmlns="http://www.w3.org/2000/svg" xmlns:xlink="http://www.w3.org/1999/xlink" version="1.1" x="0px" y="0px" viewBox="0 0 64 80" style="enable-background:new 0 0 64 64;" xml:space="preserve"><path d="M52,1H20c-0.6,0-1,0.4-1,1s0.4,1,1,1h32c0.6,0,1,0.4,1,1v43.6c0,0.6,0.4,1,1,1s1-0.4,1-1V4C55,2.3,53.7,1,52,1z"/><path d="M54,51c-0.6,0-1,0.4-1,1v2c0,0.6,0.4,1,1,1s1-0.4,1-1v-2C55,51.4,54.6,51,54,51z"/><path d="M54,57c-0.6,0-1,0.4-1,1v2c0,0.6-0.4,1-1,1H14c-0.6,0-1-0.4-1-1v-7h2.2c0.4,1.2,1.5,2,2.8,2c1.7,0,3-1.3,3-3s-1.3-3-3-3  c-1.3,0-2.4,0.8-2.8,2H13v-8h2.2c0.4,1.2,1.5,2,2.8,2c1.7,0,3-1.3,3-3s-1.3-3-3-3c-1.3,0-2.4,0.8-2.8,2H13v-8h2.2  c0.4,1.2,1.5,2,2.8,2c1.7,0,3-1.3,3-3s-1.3-3-3-3c-1.3,0-2.4,0.8-2.8,2H13v-8h2.2c0.4,1.2,1.5,2,2.8,2c1.7,0,3-1.3,3-3s-1.3-3-3-3  c-1.3,0-2.4,0.8-2.8,2H13v-8h2.2c0.4,1.2,1.5,2,2.8,2c1.7,0,3-1.3,3-3s-1.3-3-3-3c-1.3,0-2.4,0.8-2.8,2H13V4c0-0.6,0.4-1,1-1h2  c0.6,0,1-0.4,1-1s-0.4-1-1-1h-2c-1.7,0-3,1.3-3,3v7h-1c-0.6,0-1,0.4-1,1s0.4,1,1,1h1v8h-1c-0.6,0-1,0.4-1,1s0.4,1,1,1h1v8h-1  c-0.6,0-1,0.4-1,1s0.4,1,1,1h1v8h-1c-0.6,0-1,0.4-1,1s0.4,1,1,1h1v8h-1c-0.6,0-1,0.4-1,1s0.4,1,1,1h1v7c0,1.7,1.3,3,3,3h38  c1.7,0,3-1.3,3-3v-2C55,57.4,54.6,57,54,57z M18,51c0.6,0,1,0.4,1,1s-0.4,1-1,1s-1-0.4-1-1S17.4,51,18,51z M18,41c0.6,0,1,0.4,1,1  s-0.4,1-1,1s-1-0.4-1-1S17.4,41,18,41z M18,31c0.6,0,1,0.4,1,1s-0.4,1-1,1s-1-0.4-1-1S17.4,31,18,31z M18,21c0.6,0,1,0.4,1,1  s-0.4,1-1,1s-1-0.4-1-1S17.4,21,18,21z M18,11c0.6,0,1,0.4,1,1s-0.4,1-1,1s-1-0.4-1-1S17.4,11,18,11z"/><path d="M34,26.8c0.4-0.4,0.6-0.9,0.6-1.5c0-0.6-0.2-1.1-0.6-1.5l-4.1-4.1c-0.8-0.8-2.2-0.8-3,0l-3.1,3.1c-0.5,0.5-0.7,1.2-0.7,1.6  c0,0.1,0,0.2,0,0.2c2.1,8.6,8.2,15.7,16.5,19c0.5,0.2,1.1,0,1.3-0.6s0-1.1-0.6-1.3c-7.6-3-13.3-9.5-15.3-17.4c0,0,0-0.1,0.1-0.1  l3.1-3.1c0,0,0.2,0,0.2,0l4.1,4.1c0,0,0,0.2,0,0.2l-2.9,2.9c-0.7,0.7-0.8,1.6-0.4,2.5c1.9,3.3,4.6,6,7.8,7.9  c0.8,0.4,1.9,0.3,2.6-0.4l2.9-2.9c0,0,0.2,0,0.2,0l4.1,4.1c0,0,0,0.2,0,0.2l-3.1,3.1c-0.4,0.4-0.4,1,0,1.4c0.2,0.2,0.5,0.3,0.7,0.3  s0.5-0.1,0.7-0.3l3.1-3.1c0.8-0.8,0.8-2.2,0-3L44.2,34c-0.4-0.4-0.9-0.6-1.5-0.6c-0.6,0-1.1,0.2-1.5,0.6l-2.9,2.9c0,0-0.1,0-0.1,0  c0,0,0,0,0,0c-2.9-1.7-5.3-4.1-7-7.1c0-0.1,0-0.1,0-0.1L34,26.8z"/><path d="M17,58c0,0.6,0.4,1,1,1h6c0.6,0,1-0.4,1-1s-0.4-1-1-1h-6C17.4,57,17,57.4,17,58z"/><path d="M28,57c-0.6,0-1,0.4-1,1s0.4,1,1,1h2c0.6,0,1-0.4,1-1s-0.4-1-1-1H28z"/><path d="M50,11c0.6,0,1-0.4,1-1V7.9C51,6.4,49.6,5,48.1,5H44c-0.6,0-1,0.4-1,1s0.4,1,1,1h4.1C48.5,7,49,7.5,49,7.9V10  C49,10.6,49.4,11,50,11z"/><path d="M40,7c0.6,0,1-0.4,1-1s-0.4-1-1-1h-2c-0.6,0-1,0.4-1,1s0.4,1,1,1H40z"/></svg>