<svg xmlns="http://www.w3.org/2000/svg" width="24" height="24"  version="1.1" viewBox="-5.0 -10.0 110.0 135.0">
 <path d="m73.035 50.688c0-0.82812 0.67188-1.5 1.5-1.5s1.5 0.67188 1.5 1.5c0 7.9805-3.2578 15.227-8.5078 20.477-4.9219 4.9219-11.594 8.0898-18.98 8.4688v13.855h9.5625c0.82812 0 1.5 0.67188 1.5 1.5s-0.67188 1.5-1.5 1.5h-22.125c-0.82812 0-1.5-0.67188-1.5-1.5s0.67188-1.5 1.5-1.5h9.5625v-13.855c-7.3828-0.37891-14.051-3.5508-18.977-8.4688-5.2578-5.2578-8.5156-12.504-8.5156-20.477 0-0.82812 0.67187-1.5 1.5-1.5 0.82812 0 1.5 0.67188 1.5 1.5 0 7.1562 2.9219 13.652 7.6289 18.359 4.707 4.707 11.207 7.6289 18.359 7.6289 7.1523 0 13.648-2.9219 18.359-7.6289 4.7109-4.7109 7.6289-11.207 7.6289-18.355zm-7.6367-29.348h4.6133c0.99609 0 1.9062 0.40625 2.5586 1.0625l0.097657 0.10938c0.59766 0.64453 0.96484 1.5078 0.96484 2.4492v4.6133c0 0.99219-0.40625 1.8945-1.0625 2.5547-0.65234 0.66016-1.5586 1.0664-2.5586 1.0664h-4.6133c-0.99609 0-1.9062-0.40625-2.5586-1.0625l-0.097656-0.10937c-0.59766-0.64453-0.96484-1.5078-0.96484-2.4492v-4.6133c0-0.99219 0.40625-1.8984 1.0625-2.5547 0.65234-0.66016 1.5586-1.0664 2.5586-1.0664zm4.6133 3h-4.6133c-0.16797 0-0.32422 0.070312-0.4375 0.18359-0.11328 0.10937-0.18359 0.26562-0.18359 0.4375v4.6133c0 0.14844 0.054687 0.28906 0.14062 0.39844l0.042969 0.039063c0.10937 0.10938 0.26562 0.18359 0.4375 0.18359h4.6133c0.16797 0 0.32422-0.070312 0.4375-0.18359 0.11328-0.10938 0.18359-0.26562 0.18359-0.4375v-4.6133c0-0.14844-0.054687-0.28906-0.14453-0.39844l-0.039062-0.039062c-0.10938-0.10938-0.26562-0.18359-0.4375-0.18359zm-2.3086-11.312c3.9336 0 7.4922 1.5938 10.07 4.1719 2.5781 2.5781 4.1719 6.1367 4.1719 10.07 0 3.9336-1.5938 7.4922-4.1719 10.07-2.2422 2.2422-5.2383 3.7422-8.5703 4.0938v9.2539c0 6.0938-2.4922 11.633-6.5078 15.652-4.0156 4.0156-9.5547 6.5078-15.652 6.5078-6.0938 0-11.633-2.4922-15.652-6.5078-4.0156-4.0156-6.5078-9.5547-6.5078-15.652v-25.031c0-6.0938 2.4922-11.633 6.5078-15.652 4.0156-4.0156 9.5547-6.5078 15.652-6.5078 3.9062 0 7.5898 1.0273 10.793 2.8242 3.0078 1.6875 5.5859 4.0625 7.5195 6.8984 0.76172-0.125 1.5469-0.19141 2.3438-0.19141zm-1.5 28.402c-3.3281-0.35156-6.3164-1.8477-8.5664-4.0938-2.582-2.5781-4.1758-6.1367-4.1758-10.07s1.5938-7.4922 4.1719-10.07l0.089844-0.082031c1.3047-1.2852 2.8555-2.3164 4.5703-3.0234-1.5977-2.0977-3.6133-3.8594-5.9219-5.1562-2.7617-1.5508-5.9414-2.4375-9.3281-2.4375-5.2695 0-10.055 2.1562-13.527 5.6289s-5.6289 8.2617-5.6289 13.527v25.031c0 5.2695 2.1562 10.055 5.6289 13.527 3.4727 3.4727 8.2617 5.6289 13.527 5.6289 5.2695 0 10.055-2.1562 13.527-5.6289 3.4727-3.4727 5.6289-8.2617 5.6289-13.527v-9.2539zm9.4492-22.109c-2.0352-2.0352-4.8438-3.293-7.9492-3.293-0.90625 0-1.7852 0.10547-2.6289 0.30859l-0.007813 0.003906h-0.007812l-0.0625 0.019531-0.035156 0.007813h-0.003907c-1.9688 0.49219-3.7305 1.5078-5.1289 2.8789l-0.070313 0.074218c-2.0352 2.0352-3.293 4.8438-3.293 7.9492s1.2617 5.918 3.293 7.9492c2.0312 2.0352 4.8438 3.293 7.9492 3.293s5.918-1.2617 7.9492-3.293c2.0352-2.0352 3.293-4.8438 3.293-7.9492s-1.2617-5.918-3.293-7.9492z"/>
</svg>