<svg xmlns="http://www.w3.org/2000/svg" width="24" height="24"  xmlns:xlink="http://www.w3.org/1999/xlink" version="1.1" x="0px" y="0px" viewBox="0 0 32 40" style="enable-background:new 0 0 32 32;" xml:space="preserve"><path d="M25.1,12.1h2.2c0.9,0,1.6-0.7,1.6-1.6V8.3c0-0.9-0.7-1.6-1.6-1.6h-2.2c-0.9,0-1.6,0.7-1.6,1.6h-8.3C14,7,12.4,6.3,10.7,6.3  H9.8C9.4,4.9,8.1,3.9,6.5,3.9C4.6,3.9,3,5.5,3,7.5C3,9.4,4.6,11,6.5,11c1,0,2-0.5,2.6-1.2c0.6,0.6,1,1.5,1,2.4v0.4  c0,2.8,2,5.2,4.6,5.8v1.7c0,3.5,2.9,6.4,6.4,6.4h2.4c0,0.9,0.7,1.6,1.6,1.6h2.2c0.9,0,1.6-0.7,1.6-1.6v-2.2c0-0.9-0.7-1.6-1.6-1.6  h-2.2c-0.9,0-1.6,0.7-1.6,1.6h-2.4c-2.2,0-4.1-1.8-4.1-4.1v-1.6h6.4c0,0.9,0.7,1.6,1.6,1.6h2.2c0.9,0,1.6-0.7,1.6-1.6v-2.2  c0-0.9-0.7-1.6-1.6-1.6h-2.2c-0.9,0-1.6,0.7-1.6,1.6h-6.4v-3.5c0-0.8-0.1-1.5-0.4-2.2h6.8C23.5,11.4,24.2,12.1,25.1,12.1z   M12.4,12.6v-0.4c0-1.3-0.5-2.6-1.2-3.5c2,0.3,3.5,2,3.5,4v3.2C13.4,15.4,12.4,14.1,12.4,12.6z"/></svg>