<svg width="12" height="13" viewBox="0 0 12 13" fill="none" xmlns="http://www.w3.org/2000/svg">
<path fill-rule="evenodd" clip-rule="evenodd" d="M8.5 5.29412C8.5 7.34082 6.933 9 5 9C3.067 9 1.5 7.34082 1.5 5.29412C1.5 3.24742 3.067 1.58824 5 1.58824C6.933 1.58824 8.5 3.24742 8.5 5.29412ZM7.75844 9.71037C6.96779 10.2651 6.01953 10.5882 5 10.5882C2.23858 10.5882 0 8.21798 0 5.29412C0 2.37026 2.23858 0 5 0C7.76142 0 10 2.37026 10 5.29412C10 6.37362 9.69485 7.37766 9.17091 8.21481C9.18319 8.2266 9.19526 8.23876 9.20711 8.2513L11.7071 10.8984C12.0976 11.3119 12.0976 11.9823 11.7071 12.3958C11.3166 12.8093 10.6834 12.8093 10.2929 12.3958L7.79289 9.7487C7.78105 9.73616 7.76956 9.72338 7.75844 9.71037Z" fill="#BAB9BD"/>
</svg>
