<svg xmlns="http://www.w3.org/2000/svg" width="24" height="24"  viewBox="0 0 100 125" x="0px" y="0px"><g data-name="Layer 2"><path d="M92.532,28.3a4.363,4.363,0,0,0-2.948-1.132H36.472a4.509,4.509,0,0,0-1.838.4,1.5,1.5,0,0,0-.4,2.476l25.427,23.2a1.5,1.5,0,0,0,1.9.1l29.4-21.626-5.432,36.5a1.484,1.484,0,0,0-.016.221,1.391,1.391,0,0,1-.724,1.227,1.3,1.3,0,0,1-.691.179H30.219a1.5,1.5,0,0,0,0,3H84.1a4.285,4.285,0,0,0,2.242-.61,4.371,4.371,0,0,0,2.172-3.674L93.984,31.8A1.484,1.484,0,0,0,94,31.578a4.374,4.374,0,0,0-1.431-3.249ZM60.777,50.188,38.827,30.163H88Z"/><path d="M32.716,39.457H17.489a1.5,1.5,0,1,0,0,3H32.716a1.5,1.5,0,0,0,0-3Z"/><path d="M40.7,49.152H16.338a1.5,1.5,0,0,0,0,3H40.7a1.5,1.5,0,0,0,0-3Z"/><path d="M11.417,49.152H7.5a1.5,1.5,0,0,0,0,3h3.917a1.5,1.5,0,1,0,0-3Z"/><path d="M28.719,60.347a1.5,1.5,0,0,0,1.5,1.5H45.79a1.5,1.5,0,0,0,0-3H30.219A1.5,1.5,0,0,0,28.719,60.347Z"/><path d="M25.886,58.847H21.222a1.5,1.5,0,0,0,0,3h4.664a1.5,1.5,0,1,0,0-3Z"/><path d="M16.852,58.847H15.236a1.5,1.5,0,1,0,0,3h1.616a1.5,1.5,0,0,0,0-3Z"/></g></svg>