<svg width="24" height="24" viewBox="0 0 24 24" fill="none" xmlns="http://www.w3.org/2000/svg">
<path d="M10 12.5C12.21 12.5 14 10.71 14 8.5C14 6.29 12.21 4.5 10 4.5C7.79 4.5 6 6.29 6 8.5C6 10.71 7.79 12.5 10 12.5ZM10 6.5C11.11 6.5 12 7.4 12 8.5C12 9.6 11.11 10.5 10 10.5C8.89 10.5 8 9.61 8 8.5C8 7.39 8.9 6.5 10 6.5ZM12 20.5H2V17.5C2 14.83 7.33 13.5 10 13.5C11 13.5 12.38 13.69 13.71 14.06C13.41 14.62 13.23 15.24 13.21 15.89C12.23 15.6 11.11 15.4 10 15.4C7.03 15.4 3.9 16.86 3.9 17.5V18.6H12C12 18.63 12 18.67 12 18.7V20.5ZM20.8 17.5V16C20.8 14.6 19.4 13.5 18 13.5C16.6 13.5 15.2 14.6 15.2 16V17.5C14.6 17.5 14 18.1 14 18.7V22.2C14 22.9 14.6 23.5 15.2 23.5H20.7C21.4 23.5 22 22.9 22 22.3V18.8C22 18.1 21.4 17.5 20.8 17.5ZM19.5 17.5H16.5V16C16.5 15.2 17.2 14.7 18 14.7C18.8 14.7 19.5 15.2 19.5 16V17.5Z" fill="#8D0000"/>
</svg>
